<?xml version="1.0" encoding="UTF-8" standalone="no"?>
<!DOCTYPE svg PUBLIC "-//W3C//DTD SVG 1.1//EN" "http://www.w3.org/Graphics/SVG/1.1/DTD/svg11.dtd">
<svg version="1.1" xmlns="http://www.w3.org/2000/svg" xmlns:xlink="http://www.w3.org/1999/xlink" preserveAspectRatio="xMidYMid meet" viewBox="0 0 557 557" width="557" height="557"><defs><path d="M0 0L80 0L80 80L0 80L0 0Z" id="aILPx5Xgh"></path><path d="M80 0L160 0L160 80L80 80L80 0Z" id="f14Yh0hOME"></path><path d="M159.83 0.23L239.83 0.23L239.83 80.23L159.83 80.23L159.83 0.23Z" id="aSkon90Dw"></path><path d="M319.66 -0.54L399.66 -0.54L399.66 79.46L319.66 79.46L319.66 -0.54Z" id="a1GEmZzLPV"></path><path d="M477.24 0.47L557.24 0.47L557.24 80.47L477.24 80.47L477.24 0.47Z" id="bRWZdHOOL"></path><path d="M0.23 159.83L80.23 159.83L80.23 239.83L0.23 239.83L0.23 159.83Z" id="b64hgpZZa"></path><path d="M0.47 319.66L80.47 319.66L80.47 399.66L0.47 399.66L0.47 319.66Z" id="a1r29kX3Zk"></path><path d="M-0.31 477.47L79.69 477.47L79.69 557.47L-0.31 557.47L-0.31 477.47Z" id="gu5pjnoV5"></path><path d="M158.51 477.71L238.51 477.71L238.51 557.71L158.51 557.71L158.51 477.71Z" id="ak7y9GeDi"></path><path d="M318.34 477.94L398.34 477.94L398.34 557.94L318.34 557.94L318.34 477.94Z" id="a1TsxOF82"></path><path d="M477.16 478.17L557.16 478.17L557.16 558.17L477.16 558.17L477.16 478.17Z" id="b4ScZXGUGl"></path><path d="M477.4 317.8L557.4 317.8L557.4 397.8L477.4 397.8L477.4 317.8Z" id="c1KWPtrEd"></path><path d="M477.63 160.46L557.63 160.46L557.63 240.46L477.63 240.46L477.63 160.46Z" id="ay1iwaiMu"></path><path d="M239.83 -0.78L319.83 -0.78L319.83 79.22L239.83 79.22L239.83 -0.78Z" id="c1ors3rIJa"></path><path d="M396.63 -0.54L476.63 -0.54L476.63 79.46L396.63 79.46L396.63 -0.54Z" id="m1oLMTEVrs"></path><path d="M476.66 80.5L556.66 80.5L556.66 160.5L476.66 160.5L476.66 80.5Z" id="a10DixzvL"></path><path d="M477.67 238.08L557.67 238.08L557.67 318.08L477.67 318.08L477.67 238.08Z" id="h34VfwsjcN"></path><path d="M476.9 397.91L556.9 397.91L556.9 477.91L476.9 477.91L476.9 397.91Z" id="b9UHWQguVs"></path><path d="M397.33 477.94L477.33 477.94L477.33 557.94L397.33 557.94L397.33 477.94Z" id="g128dZ2WWA"></path><path d="M237.97 478.17L317.97 478.17L317.97 558.17L237.97 558.17L237.97 478.17Z" id="jFtEpIam3"></path><path d="M78.61 477.4L158.61 477.4L158.61 557.4L78.61 557.4L78.61 477.4Z" id="qVqbuGing"></path><path d="M0.06 399.86L80.06 399.86L80.06 479.86L0.06 479.86L0.06 399.86Z" id="cCAGxEBym"></path><path d="M0.29 239.48L80.29 239.48L80.29 319.48L0.29 319.48L0.29 239.48Z" id="aFVb5yfA6"></path><path d="M0.53 80.12L80.53 80.12L80.53 160.12L0.53 160.12L0.53 80.12Z" id="bbuJ35EJx"></path></defs><g><g><g><use xlink:href="#aILPx5Xgh" opacity="1" fill="#efd7f0" fill-opacity="1"></use></g><g><use xlink:href="#f14Yh0hOME" opacity="1" fill="#f9f5db" fill-opacity="1"></use></g><g><use xlink:href="#aSkon90Dw" opacity="1" fill="#efd7f0" fill-opacity="1"></use></g><g><use xlink:href="#a1GEmZzLPV" opacity="1" fill="#efd7f0" fill-opacity="1"></use></g><g><use xlink:href="#bRWZdHOOL" opacity="1" fill="#efd7f0" fill-opacity="1"></use></g><g><use xlink:href="#b64hgpZZa" opacity="1" fill="#efd7f0" fill-opacity="1"></use></g><g><use xlink:href="#a1r29kX3Zk" opacity="1" fill="#efd7f0" fill-opacity="1"></use></g><g><use xlink:href="#gu5pjnoV5" opacity="1" fill="#efd7f0" fill-opacity="1"></use></g><g><use xlink:href="#ak7y9GeDi" opacity="1" fill="#efd7f0" fill-opacity="1"></use></g><g><use xlink:href="#a1TsxOF82" opacity="1" fill="#efd7f0" fill-opacity="1"></use></g><g><use xlink:href="#b4ScZXGUGl" opacity="1" fill="#efd7f0" fill-opacity="1"></use></g><g><use xlink:href="#c1KWPtrEd" opacity="1" fill="#efd7f0" fill-opacity="1"></use></g><g><use xlink:href="#ay1iwaiMu" opacity="1" fill="#efd7f0" fill-opacity="1"></use></g><g><use xlink:href="#c1ors3rIJa" opacity="1" fill="#f9f5db" fill-opacity="1"></use></g><g><use xlink:href="#m1oLMTEVrs" opacity="1" fill="#f9f5db" fill-opacity="1"></use></g><g><use xlink:href="#a10DixzvL" opacity="1" fill="#f9f5db" fill-opacity="1"></use></g><g><use xlink:href="#h34VfwsjcN" opacity="1" fill="#f9f5db" fill-opacity="1"></use></g><g><use xlink:href="#b9UHWQguVs" opacity="1" fill="#f9f5db" fill-opacity="1"></use></g><g><use xlink:href="#g128dZ2WWA" opacity="1" fill="#f9f5db" fill-opacity="1"></use></g><g><use xlink:href="#jFtEpIam3" opacity="1" fill="#f9f5db" fill-opacity="1"></use></g><g><use xlink:href="#qVqbuGing" opacity="1" fill="#f9f5db" fill-opacity="1"></use></g><g><use xlink:href="#cCAGxEBym" opacity="1" fill="#f9f5db" fill-opacity="1"></use></g><g><use xlink:href="#aFVb5yfA6" opacity="1" fill="#f9f5db" fill-opacity="1"></use></g><g><use xlink:href="#bbuJ35EJx" opacity="1" fill="#f9f5db" fill-opacity="1"></use></g></g></g></svg>